<svg width="50" height="50" viewBox="0 0 50 50" fill="none" xmlns="http://www.w3.org/2000/svg">
<path d="M25 0.422363C11.4265 0.422363 0.422546 11.4264 0.422546 24.9998C0.422546 38.5732 11.4265 49.5772 25 49.5772C38.5734 49.5772 49.5774 38.5732 49.5774 24.9998C49.5774 11.4264 38.5734 0.422363 25 0.422363ZM37.6887 32.4018C37.6887 33.7586 36.547 34.8689 35.1512 34.8689H14.8487C13.4529 34.8689 12.3112 33.7587 12.3112 32.4018L12.3229 20.2132L24.6959 26.7748C24.7896 26.8243 24.894 26.8501 25 26.8501C25.106 26.8501 25.2103 26.8243 25.304 26.7748L37.6887 20.207V32.4018ZM25.0061 24.458L12.3243 17.5753C12.3366 16.2286 13.4611 15.1307 14.8488 15.1307H35.1513C36.5369 15.1307 37.6724 16.2245 37.6888 17.5684L25.0062 24.458H25.0061Z" fill="white" fill-opacity="0.6"/>
</svg>
