<svg width="47" height="47" viewBox="0 0 47 47" fill="none" xmlns="http://www.w3.org/2000/svg">
<path d="M18.1537 12.2983C18.3066 12.145 18.4882 12.0233 18.6881 11.9403C18.8881 11.8572 19.1024 11.8145 19.3189 11.8145C19.5355 11.8145 19.7498 11.8572 19.9498 11.9403C20.1497 12.0233 20.3313 12.145 20.4842 12.2983L31.3333 22.3642C31.4988 22.5181 31.6308 22.7045 31.721 22.9117C31.8113 23.1189 31.8578 23.3425 31.8578 23.5685C31.8578 23.7946 31.8113 24.0181 31.721 24.2254C31.6308 24.4326 31.4988 24.619 31.3333 24.7729L20.5233 34.8975C20.2039 35.1961 19.7789 35.3557 19.3419 35.341C18.9049 35.3263 18.4916 35.1386 18.1929 34.8192C17.8943 34.4997 17.7347 34.0748 17.7494 33.6377C17.7641 33.2007 17.9518 32.7874 18.2712 32.4887L27.7496 23.5L18.2125 14.57C17.9123 14.2716 17.7388 13.869 17.7278 13.4459C17.7169 13.0229 17.8694 12.6118 18.1537 12.2983ZM23.5 47C28.1479 47 32.6913 45.6217 36.5559 43.0395C40.4204 40.4573 43.4325 36.7871 45.2112 32.4931C46.9898 28.199 47.4552 23.4739 46.5484 18.9154C45.6417 14.3568 43.4035 10.1695 40.117 6.88299C36.8305 3.59645 32.6432 1.3583 28.0846 0.451546C23.5261 -0.455208 18.801 0.0101738 14.5069 1.78883C10.2129 3.56749 6.54266 6.57954 3.96045 10.4441C1.37824 14.3087 -1.14441e-05 18.8521 -1.14441e-05 23.5C-1.14441e-05 29.7326 2.47587 35.7099 6.88298 40.117C11.2901 44.5241 17.2674 47 23.5 47V47Z" fill="#FFB7BA"/>
</svg>
