<svg width="47" height="47" viewBox="0 0 47 47" fill="none" xmlns="http://www.w3.org/2000/svg">
<path d="M28.8463 34.7017C28.6934 34.855 28.5118 34.9767 28.3119 35.0597C28.1119 35.1428 27.8976 35.1855 27.6811 35.1855C27.4645 35.1855 27.2502 35.1428 27.0502 35.0597C26.8503 34.9767 26.6687 34.855 26.5158 34.7017L15.6667 24.6358C15.5012 24.4819 15.3692 24.2955 15.279 24.0883C15.1887 23.8811 15.1422 23.6575 15.1422 23.4315C15.1422 23.2054 15.1887 22.9819 15.279 22.7746C15.3692 22.5674 15.5012 22.381 15.6667 22.2271L26.4767 12.1025C26.7961 11.8039 27.2211 11.6443 27.6581 11.659C28.0951 11.6737 28.5084 11.8614 28.8071 12.1808C29.1057 12.5003 29.2653 12.9252 29.2506 13.3623C29.2359 13.7993 29.0482 14.2126 28.7288 14.5113L19.2504 23.5L28.7875 32.43C29.0877 32.7284 29.2612 33.131 29.2722 33.5541C29.2831 33.9771 29.1306 34.3882 28.8463 34.7017ZM23.5 0C18.8521 0 14.3087 1.37825 10.4441 3.96046C6.57955 6.54268 3.5675 10.2129 1.78884 14.5069C0.0101821 18.801 -0.455196 23.5261 0.451556 28.0846C1.35831 32.6432 3.59647 36.8305 6.883 40.117C10.1695 43.4035 14.3568 45.6417 18.9154 46.5485C23.4739 47.4552 28.199 46.9898 32.4931 45.2112C36.7871 43.4325 40.4573 40.4205 43.0395 36.5559C45.6218 32.6913 47 28.1479 47 23.5C47 17.2674 44.5241 11.2901 40.117 6.88299C35.7099 2.47589 29.7326 0 23.5 0V0Z" fill="#FFB7BA"/>
</svg>
