<svg width="49" height="49" viewBox="0 0 49 49" fill="none" xmlns="http://www.w3.org/2000/svg">
<path d="M33.32 26.46C33.8608 26.46 34.3 26.0208 34.3 25.48C34.3 24.9383 33.8608 24.5 33.32 24.5C32.7792 24.5 32.34 24.9392 32.34 25.48C32.34 26.0208 32.7792 26.46 33.32 26.46ZM27.44 26.46C27.9808 26.46 28.42 26.0208 28.42 25.48C28.42 24.9383 27.9808 24.5 27.44 24.5C26.8992 24.5 26.46 24.9392 26.46 25.48C26.46 26.0208 26.8992 26.46 27.44 26.46ZM24.01 19.6C24.8212 19.6 25.48 18.9421 25.48 18.13C25.48 17.3179 24.8212 16.66 24.01 16.66C23.1988 16.66 22.54 17.3179 22.54 18.13C22.54 18.9421 23.1988 19.6 24.01 19.6ZM16.17 19.6C16.9812 19.6 17.64 18.9421 17.64 18.13C17.64 17.3179 16.9812 16.66 16.17 16.66C15.3588 16.66 14.7 17.3179 14.7 18.13C14.7 18.9421 15.3588 19.6 16.17 19.6ZM24.5 49C38.0313 49 49 38.0313 49 24.5C49 10.9687 38.0313 0 24.5 0C10.9687 0 0 10.9687 0 24.5C0 38.0313 10.9687 49 24.5 49ZM21.6154 29.2367C21.1199 29.3056 20.6099 29.341 20.0909 29.341C18.7915 29.341 17.5538 29.1178 16.4295 28.714C16.3179 28.6741 15.9177 28.5534 15.7018 28.714C15.2154 29.0751 14.563 29.8265 14.563 29.8265C14.563 29.8265 14.8025 29.2802 14.8824 28.4817C14.9187 28.1169 14.3624 27.861 14.2508 27.7866C12.1339 26.3547 10.78 23.9891 10.78 21.531C10.78 17.2171 14.9477 13.72 20.09 13.72C24.8911 13.72 28.8428 16.768 29.3456 20.6834C24.9283 21.2932 21.5591 24.5082 21.5591 28.3837C21.56 28.6723 21.5781 28.9563 21.6154 29.2367ZM22.1299 31.0796C21.4684 31.184 20.786 31.2384 20.09 31.2384C18.6989 31.2384 17.3687 31.0206 16.1382 30.6232C15.5194 30.4236 13.2599 32.7892 12.6983 32.5024C12.3643 32.3318 13.7073 29.5343 13.397 29.3356C10.6194 27.5616 8.81909 24.7123 8.81909 21.4992C8.81909 16.1201 13.8652 11.76 20.0891 11.76C25.9582 11.76 30.7793 15.6364 31.3101 20.5882C36.2473 20.7814 40.1791 24.1978 40.1791 28.3837C40.1791 30.9834 38.6628 33.2855 36.3308 34.7047C35.8916 34.9715 37.2826 37.2237 36.789 37.4242C36.4859 37.5476 34.3154 35.6412 33.9942 35.7373C33.0169 36.0295 31.9652 36.1883 30.8691 36.1883C26.8584 36.1874 23.4392 34.0604 22.1299 31.0796Z" fill="white" fill-opacity="0.6"/>
</svg>
