<svg width="51" height="51" viewBox="0 0 51 51" fill="none" xmlns="http://www.w3.org/2000/svg">
<path d="M25.5 0.5625C11.7398 0.5625 0.5625 11.7398 0.5625 25.5C0.5625 39.2602 11.7398 50.4375 25.5 50.4375C39.2602 50.4375 50.4375 39.2602 50.4375 25.5C50.4375 11.7398 39.2602 0.5625 25.5 0.5625ZM37.9688 36.9891C37.9688 37.7906 37.3453 38.4141 36.5883 38.4141C23.4516 38.4141 12.8086 27.5039 12.8086 14.0109C12.8086 13.2094 13.432 12.5859 14.1891 12.5859H19.0875C19.8445 12.5859 20.468 13.2094 20.468 14.0109C20.468 15.7922 20.7352 17.5289 21.2695 19.1766C21.4031 19.6664 21.3141 20.2453 20.9133 20.6461L17.8406 23.8078C19.8445 27.8602 23.0953 31.2 27.0586 33.2484L30.1313 30.0867C30.4875 29.6859 31.0664 29.5523 31.5562 29.7305C33.1148 30.2648 34.807 30.532 36.5438 30.532C37.3008 30.532 37.9242 31.2 37.9242 31.957V36.9891H37.9688Z" fill="white" fill-opacity="0.6"/>
</svg>
